<mxfile host="app.diagrams.net" modified="2022-03-18T11:17:28.606Z" agent="5.0 (Windows NT 10.0; Win64; x64) AppleWebKit/537.36 (KHTML, like Gecko) Chrome/99.0.4844.74 Safari/537.36" etag="vSkISe-VYNlY77QmPURL" version="16.5.2" type="github">
  <diagram id="sfGlHqyln8PCD_7GB3rE" name="Page-1">
    <mxGraphModel dx="928" dy="885" grid="1" gridSize="10" guides="1" tooltips="1" connect="1" arrows="1" fold="1" page="1" pageScale="1" pageWidth="1600" pageHeight="1200" math="0" shadow="0">
      <root>
        <mxCell id="0" />
        <mxCell id="1" parent="0" />
        <mxCell id="FGJA37stXW7gpaV1ArHA-7" style="edgeStyle=orthogonalEdgeStyle;rounded=0;orthogonalLoop=1;jettySize=auto;html=1;exitX=1;exitY=0.5;exitDx=0;exitDy=0;" edge="1" parent="1" source="FGJA37stXW7gpaV1ArHA-1" target="FGJA37stXW7gpaV1ArHA-2">
          <mxGeometry relative="1" as="geometry" />
        </mxCell>
        <mxCell id="FGJA37stXW7gpaV1ArHA-1" value="" style="ellipse;whiteSpace=wrap;html=1;aspect=fixed;" vertex="1" parent="1">
          <mxGeometry x="10" y="100" width="40" height="40" as="geometry" />
        </mxCell>
        <mxCell id="FGJA37stXW7gpaV1ArHA-8" style="edgeStyle=orthogonalEdgeStyle;rounded=0;orthogonalLoop=1;jettySize=auto;html=1;exitX=1;exitY=0.5;exitDx=0;exitDy=0;entryX=0;entryY=0.5;entryDx=0;entryDy=0;" edge="1" parent="1" source="FGJA37stXW7gpaV1ArHA-2" target="FGJA37stXW7gpaV1ArHA-3">
          <mxGeometry relative="1" as="geometry" />
        </mxCell>
        <mxCell id="FGJA37stXW7gpaV1ArHA-2" value="Подача заявки" style="rounded=1;whiteSpace=wrap;html=1;" vertex="1" parent="1">
          <mxGeometry x="90" y="90" width="120" height="60" as="geometry" />
        </mxCell>
        <mxCell id="FGJA37stXW7gpaV1ArHA-9" style="edgeStyle=orthogonalEdgeStyle;rounded=0;orthogonalLoop=1;jettySize=auto;html=1;exitX=1;exitY=0.5;exitDx=0;exitDy=0;entryX=0;entryY=0.5;entryDx=0;entryDy=0;" edge="1" parent="1" source="FGJA37stXW7gpaV1ArHA-3" target="FGJA37stXW7gpaV1ArHA-4">
          <mxGeometry relative="1" as="geometry" />
        </mxCell>
        <mxCell id="FGJA37stXW7gpaV1ArHA-3" value="Передача документов" style="rounded=1;whiteSpace=wrap;html=1;" vertex="1" parent="1">
          <mxGeometry x="250" y="90" width="120" height="60" as="geometry" />
        </mxCell>
        <mxCell id="FGJA37stXW7gpaV1ArHA-10" style="edgeStyle=orthogonalEdgeStyle;rounded=0;orthogonalLoop=1;jettySize=auto;html=1;exitX=1;exitY=0.5;exitDx=0;exitDy=0;entryX=0;entryY=0.5;entryDx=0;entryDy=0;" edge="1" parent="1" source="FGJA37stXW7gpaV1ArHA-4" target="FGJA37stXW7gpaV1ArHA-5">
          <mxGeometry relative="1" as="geometry" />
        </mxCell>
        <mxCell id="FGJA37stXW7gpaV1ArHA-4" value="Процесс анализа и оценки объекта страхования" style="rounded=1;whiteSpace=wrap;html=1;" vertex="1" parent="1">
          <mxGeometry x="410" y="90" width="120" height="60" as="geometry" />
        </mxCell>
        <mxCell id="FGJA37stXW7gpaV1ArHA-11" style="edgeStyle=orthogonalEdgeStyle;rounded=0;orthogonalLoop=1;jettySize=auto;html=1;exitX=1;exitY=0.5;exitDx=0;exitDy=0;entryX=0;entryY=0.5;entryDx=0;entryDy=0;" edge="1" parent="1" source="FGJA37stXW7gpaV1ArHA-5" target="FGJA37stXW7gpaV1ArHA-6">
          <mxGeometry relative="1" as="geometry" />
        </mxCell>
        <mxCell id="FGJA37stXW7gpaV1ArHA-5" value="Оплата" style="rounded=1;whiteSpace=wrap;html=1;" vertex="1" parent="1">
          <mxGeometry x="570" y="90" width="120" height="60" as="geometry" />
        </mxCell>
        <mxCell id="FGJA37stXW7gpaV1ArHA-13" style="edgeStyle=orthogonalEdgeStyle;rounded=0;orthogonalLoop=1;jettySize=auto;html=1;exitX=1;exitY=0.5;exitDx=0;exitDy=0;" edge="1" parent="1" source="FGJA37stXW7gpaV1ArHA-6" target="FGJA37stXW7gpaV1ArHA-12">
          <mxGeometry relative="1" as="geometry" />
        </mxCell>
        <mxCell id="FGJA37stXW7gpaV1ArHA-6" value="Готовый страховочный документ" style="rounded=1;whiteSpace=wrap;html=1;" vertex="1" parent="1">
          <mxGeometry x="730" y="90" width="120" height="60" as="geometry" />
        </mxCell>
        <mxCell id="FGJA37stXW7gpaV1ArHA-12" value="" style="ellipse;whiteSpace=wrap;html=1;" vertex="1" parent="1">
          <mxGeometry x="880" y="100" width="40" height="40" as="geometry" />
        </mxCell>
        <mxCell id="FGJA37stXW7gpaV1ArHA-14" value="" style="rounded=1;whiteSpace=wrap;html=1;" vertex="1" parent="1">
          <mxGeometry x="40" y="160" width="640" height="200" as="geometry" />
        </mxCell>
        <mxCell id="FGJA37stXW7gpaV1ArHA-15" value="Процесс анализа и оценки объекта страхования" style="text;html=1;strokeColor=none;fillColor=none;align=center;verticalAlign=middle;whiteSpace=wrap;rounded=0;" vertex="1" parent="1">
          <mxGeometry x="170" y="160" width="360" height="30" as="geometry" />
        </mxCell>
        <mxCell id="FGJA37stXW7gpaV1ArHA-30" style="edgeStyle=orthogonalEdgeStyle;rounded=0;orthogonalLoop=1;jettySize=auto;html=1;exitX=1;exitY=0.5;exitDx=0;exitDy=0;entryX=0;entryY=0.5;entryDx=0;entryDy=0;" edge="1" parent="1" source="FGJA37stXW7gpaV1ArHA-17" target="FGJA37stXW7gpaV1ArHA-18">
          <mxGeometry relative="1" as="geometry" />
        </mxCell>
        <mxCell id="FGJA37stXW7gpaV1ArHA-17" value="" style="ellipse;whiteSpace=wrap;html=1;aspect=fixed;" vertex="1" parent="1">
          <mxGeometry x="60" y="250" width="40" height="40" as="geometry" />
        </mxCell>
        <mxCell id="FGJA37stXW7gpaV1ArHA-21" style="edgeStyle=orthogonalEdgeStyle;rounded=0;orthogonalLoop=1;jettySize=auto;html=1;exitX=1;exitY=0.5;exitDx=0;exitDy=0;entryX=0;entryY=0.5;entryDx=0;entryDy=0;" edge="1" parent="1" source="FGJA37stXW7gpaV1ArHA-18" target="FGJA37stXW7gpaV1ArHA-19">
          <mxGeometry relative="1" as="geometry" />
        </mxCell>
        <mxCell id="FGJA37stXW7gpaV1ArHA-22" style="edgeStyle=orthogonalEdgeStyle;rounded=0;orthogonalLoop=1;jettySize=auto;html=1;exitX=1;exitY=0.5;exitDx=0;exitDy=0;entryX=0;entryY=0.5;entryDx=0;entryDy=0;" edge="1" parent="1" source="FGJA37stXW7gpaV1ArHA-18" target="FGJA37stXW7gpaV1ArHA-20">
          <mxGeometry relative="1" as="geometry" />
        </mxCell>
        <mxCell id="FGJA37stXW7gpaV1ArHA-18" value="Не оценен" style="rounded=1;whiteSpace=wrap;html=1;" vertex="1" parent="1">
          <mxGeometry x="120" y="240" width="120" height="60" as="geometry" />
        </mxCell>
        <mxCell id="FGJA37stXW7gpaV1ArHA-24" style="edgeStyle=orthogonalEdgeStyle;rounded=0;orthogonalLoop=1;jettySize=auto;html=1;exitX=1;exitY=0.5;exitDx=0;exitDy=0;entryX=0;entryY=0.5;entryDx=0;entryDy=0;" edge="1" parent="1" source="FGJA37stXW7gpaV1ArHA-19" target="FGJA37stXW7gpaV1ArHA-23">
          <mxGeometry relative="1" as="geometry" />
        </mxCell>
        <mxCell id="FGJA37stXW7gpaV1ArHA-19" value="Заявка принята" style="rounded=1;whiteSpace=wrap;html=1;" vertex="1" parent="1">
          <mxGeometry x="305" y="200" width="120" height="60" as="geometry" />
        </mxCell>
        <mxCell id="FGJA37stXW7gpaV1ArHA-26" style="edgeStyle=orthogonalEdgeStyle;rounded=0;orthogonalLoop=1;jettySize=auto;html=1;exitX=1;exitY=0.5;exitDx=0;exitDy=0;entryX=0;entryY=0.5;entryDx=0;entryDy=0;" edge="1" parent="1" source="FGJA37stXW7gpaV1ArHA-20" target="FGJA37stXW7gpaV1ArHA-25">
          <mxGeometry relative="1" as="geometry" />
        </mxCell>
        <mxCell id="FGJA37stXW7gpaV1ArHA-20" value="Заявка отклонена" style="rounded=1;whiteSpace=wrap;html=1;" vertex="1" parent="1">
          <mxGeometry x="305" y="280" width="120" height="60" as="geometry" />
        </mxCell>
        <mxCell id="FGJA37stXW7gpaV1ArHA-23" value="" style="ellipse;whiteSpace=wrap;html=1;" vertex="1" parent="1">
          <mxGeometry x="450" y="210" width="40" height="40" as="geometry" />
        </mxCell>
        <mxCell id="FGJA37stXW7gpaV1ArHA-25" value="" style="ellipse;whiteSpace=wrap;html=1;" vertex="1" parent="1">
          <mxGeometry x="450" y="290" width="40" height="40" as="geometry" />
        </mxCell>
        <mxCell id="FGJA37stXW7gpaV1ArHA-27" value="" style="rounded=1;whiteSpace=wrap;html=1;" vertex="1" parent="1">
          <mxGeometry x="40" y="380" width="670" height="320" as="geometry" />
        </mxCell>
        <mxCell id="FGJA37stXW7gpaV1ArHA-28" value="Процесс анализа и оценки объекта страхования" style="text;html=1;strokeColor=none;fillColor=none;align=center;verticalAlign=middle;whiteSpace=wrap;rounded=0;" vertex="1" parent="1">
          <mxGeometry x="170" y="380" width="360" height="30" as="geometry" />
        </mxCell>
        <mxCell id="FGJA37stXW7gpaV1ArHA-72" style="edgeStyle=orthogonalEdgeStyle;rounded=0;orthogonalLoop=1;jettySize=auto;html=1;exitX=1;exitY=0.5;exitDx=0;exitDy=0;entryX=0;entryY=0.5;entryDx=0;entryDy=0;" edge="1" parent="1" source="FGJA37stXW7gpaV1ArHA-29" target="FGJA37stXW7gpaV1ArHA-31">
          <mxGeometry relative="1" as="geometry" />
        </mxCell>
        <mxCell id="FGJA37stXW7gpaV1ArHA-29" value="" style="ellipse;whiteSpace=wrap;html=1;aspect=fixed;" vertex="1" parent="1">
          <mxGeometry x="50" y="530" width="40" height="40" as="geometry" />
        </mxCell>
        <mxCell id="FGJA37stXW7gpaV1ArHA-69" style="edgeStyle=orthogonalEdgeStyle;rounded=0;orthogonalLoop=1;jettySize=auto;html=1;exitX=1;exitY=0.25;exitDx=0;exitDy=0;entryX=0;entryY=0.5;entryDx=0;entryDy=0;" edge="1" parent="1" source="FGJA37stXW7gpaV1ArHA-31" target="FGJA37stXW7gpaV1ArHA-65">
          <mxGeometry relative="1" as="geometry" />
        </mxCell>
        <mxCell id="FGJA37stXW7gpaV1ArHA-31" value="" style="rounded=1;whiteSpace=wrap;html=1;" vertex="1" parent="1">
          <mxGeometry x="115" y="430" width="315" height="240" as="geometry" />
        </mxCell>
        <mxCell id="FGJA37stXW7gpaV1ArHA-48" style="edgeStyle=orthogonalEdgeStyle;rounded=0;orthogonalLoop=1;jettySize=auto;html=1;exitX=1;exitY=0.5;exitDx=0;exitDy=0;entryX=0;entryY=0.5;entryDx=0;entryDy=0;" edge="1" parent="1" source="FGJA37stXW7gpaV1ArHA-32" target="FGJA37stXW7gpaV1ArHA-33">
          <mxGeometry relative="1" as="geometry" />
        </mxCell>
        <mxCell id="FGJA37stXW7gpaV1ArHA-32" value="" style="ellipse;whiteSpace=wrap;html=1;aspect=fixed;" vertex="1" parent="1">
          <mxGeometry x="140" y="470" width="40" height="40" as="geometry" />
        </mxCell>
        <mxCell id="FGJA37stXW7gpaV1ArHA-49" style="edgeStyle=orthogonalEdgeStyle;rounded=0;orthogonalLoop=1;jettySize=auto;html=1;exitX=1;exitY=0.5;exitDx=0;exitDy=0;entryX=0;entryY=0.5;entryDx=0;entryDy=0;" edge="1" parent="1" source="FGJA37stXW7gpaV1ArHA-33" target="FGJA37stXW7gpaV1ArHA-34">
          <mxGeometry relative="1" as="geometry" />
        </mxCell>
        <mxCell id="FGJA37stXW7gpaV1ArHA-33" value="Передача нужных персональных данных" style="rounded=1;whiteSpace=wrap;html=1;" vertex="1" parent="1">
          <mxGeometry x="200" y="460" width="120" height="60" as="geometry" />
        </mxCell>
        <mxCell id="FGJA37stXW7gpaV1ArHA-34" value="" style="ellipse;whiteSpace=wrap;html=1;aspect=fixed;" vertex="1" parent="1">
          <mxGeometry x="340" y="470" width="40" height="40" as="geometry" />
        </mxCell>
        <mxCell id="FGJA37stXW7gpaV1ArHA-50" style="edgeStyle=orthogonalEdgeStyle;rounded=0;orthogonalLoop=1;jettySize=auto;html=1;exitX=1;exitY=0.5;exitDx=0;exitDy=0;entryX=0;entryY=0.5;entryDx=0;entryDy=0;" edge="1" parent="1" source="FGJA37stXW7gpaV1ArHA-36" target="FGJA37stXW7gpaV1ArHA-37">
          <mxGeometry relative="1" as="geometry" />
        </mxCell>
        <mxCell id="FGJA37stXW7gpaV1ArHA-36" value="" style="ellipse;whiteSpace=wrap;html=1;aspect=fixed;" vertex="1" parent="1">
          <mxGeometry x="140" y="540" width="40" height="40" as="geometry" />
        </mxCell>
        <mxCell id="FGJA37stXW7gpaV1ArHA-51" style="edgeStyle=orthogonalEdgeStyle;rounded=0;orthogonalLoop=1;jettySize=auto;html=1;exitX=1;exitY=0.5;exitDx=0;exitDy=0;entryX=0;entryY=0.5;entryDx=0;entryDy=0;" edge="1" parent="1" source="FGJA37stXW7gpaV1ArHA-37" target="FGJA37stXW7gpaV1ArHA-38">
          <mxGeometry relative="1" as="geometry" />
        </mxCell>
        <mxCell id="FGJA37stXW7gpaV1ArHA-37" value="Оценка страхуемого объекта" style="rounded=1;whiteSpace=wrap;html=1;" vertex="1" parent="1">
          <mxGeometry x="200" y="530" width="120" height="60" as="geometry" />
        </mxCell>
        <mxCell id="FGJA37stXW7gpaV1ArHA-38" value="" style="ellipse;whiteSpace=wrap;html=1;aspect=fixed;" vertex="1" parent="1">
          <mxGeometry x="340" y="540" width="40" height="40" as="geometry" />
        </mxCell>
        <mxCell id="FGJA37stXW7gpaV1ArHA-53" style="edgeStyle=orthogonalEdgeStyle;rounded=0;orthogonalLoop=1;jettySize=auto;html=1;exitX=1;exitY=0.5;exitDx=0;exitDy=0;entryX=0;entryY=0.5;entryDx=0;entryDy=0;" edge="1" parent="1" source="FGJA37stXW7gpaV1ArHA-39" target="FGJA37stXW7gpaV1ArHA-40">
          <mxGeometry relative="1" as="geometry" />
        </mxCell>
        <mxCell id="FGJA37stXW7gpaV1ArHA-39" value="" style="ellipse;whiteSpace=wrap;html=1;aspect=fixed;" vertex="1" parent="1">
          <mxGeometry x="140" y="610" width="40" height="40" as="geometry" />
        </mxCell>
        <mxCell id="FGJA37stXW7gpaV1ArHA-63" style="edgeStyle=orthogonalEdgeStyle;rounded=0;orthogonalLoop=1;jettySize=auto;html=1;exitX=1;exitY=0.5;exitDx=0;exitDy=0;entryX=0;entryY=0.5;entryDx=0;entryDy=0;" edge="1" parent="1" source="FGJA37stXW7gpaV1ArHA-40" target="FGJA37stXW7gpaV1ArHA-56">
          <mxGeometry relative="1" as="geometry" />
        </mxCell>
        <mxCell id="FGJA37stXW7gpaV1ArHA-40" value="Есть юридические ограничения" style="rounded=1;whiteSpace=wrap;html=1;" vertex="1" parent="1">
          <mxGeometry x="200" y="600" width="120" height="60" as="geometry" />
        </mxCell>
        <mxCell id="FGJA37stXW7gpaV1ArHA-42" value="" style="ellipse;whiteSpace=wrap;html=1;aspect=fixed;fillColor=#000000;" vertex="1" parent="1">
          <mxGeometry x="460" y="220" width="20" height="20" as="geometry" />
        </mxCell>
        <mxCell id="FGJA37stXW7gpaV1ArHA-43" value="" style="ellipse;whiteSpace=wrap;html=1;aspect=fixed;fillColor=#000000;" vertex="1" parent="1">
          <mxGeometry x="460" y="300" width="20" height="20" as="geometry" />
        </mxCell>
        <mxCell id="FGJA37stXW7gpaV1ArHA-44" value="" style="ellipse;whiteSpace=wrap;html=1;aspect=fixed;fillColor=#000000;" vertex="1" parent="1">
          <mxGeometry x="890" y="110" width="20" height="20" as="geometry" />
        </mxCell>
        <mxCell id="FGJA37stXW7gpaV1ArHA-45" value="" style="ellipse;whiteSpace=wrap;html=1;aspect=fixed;fillColor=#000000;" vertex="1" parent="1">
          <mxGeometry x="350" y="480" width="20" height="20" as="geometry" />
        </mxCell>
        <mxCell id="FGJA37stXW7gpaV1ArHA-46" value="" style="ellipse;whiteSpace=wrap;html=1;aspect=fixed;fillColor=#000000;" vertex="1" parent="1">
          <mxGeometry x="350" y="550" width="20" height="20" as="geometry" />
        </mxCell>
        <mxCell id="FGJA37stXW7gpaV1ArHA-64" style="edgeStyle=orthogonalEdgeStyle;rounded=0;orthogonalLoop=1;jettySize=auto;html=1;exitX=1;exitY=0.5;exitDx=0;exitDy=0;entryX=0;entryY=0.5;entryDx=0;entryDy=0;" edge="1" parent="1" source="FGJA37stXW7gpaV1ArHA-56" target="FGJA37stXW7gpaV1ArHA-61">
          <mxGeometry relative="1" as="geometry" />
        </mxCell>
        <mxCell id="FGJA37stXW7gpaV1ArHA-56" value="Заявка отклонена" style="rounded=1;whiteSpace=wrap;html=1;" vertex="1" parent="1">
          <mxGeometry x="470" y="600" width="120" height="60" as="geometry" />
        </mxCell>
        <mxCell id="FGJA37stXW7gpaV1ArHA-61" value="" style="ellipse;whiteSpace=wrap;html=1;aspect=fixed;" vertex="1" parent="1">
          <mxGeometry x="630" y="610" width="40" height="40" as="geometry" />
        </mxCell>
        <mxCell id="FGJA37stXW7gpaV1ArHA-62" value="" style="ellipse;whiteSpace=wrap;html=1;aspect=fixed;fillColor=#000000;" vertex="1" parent="1">
          <mxGeometry x="640" y="620" width="20" height="20" as="geometry" />
        </mxCell>
        <mxCell id="FGJA37stXW7gpaV1ArHA-68" style="edgeStyle=orthogonalEdgeStyle;rounded=0;orthogonalLoop=1;jettySize=auto;html=1;exitX=1;exitY=0.5;exitDx=0;exitDy=0;entryX=0;entryY=0.5;entryDx=0;entryDy=0;" edge="1" parent="1" source="FGJA37stXW7gpaV1ArHA-65" target="FGJA37stXW7gpaV1ArHA-66">
          <mxGeometry relative="1" as="geometry" />
        </mxCell>
        <mxCell id="FGJA37stXW7gpaV1ArHA-65" value="Заявка принята" style="rounded=1;whiteSpace=wrap;html=1;" vertex="1" parent="1">
          <mxGeometry x="490" y="460" width="120" height="60" as="geometry" />
        </mxCell>
        <mxCell id="FGJA37stXW7gpaV1ArHA-66" value="" style="ellipse;whiteSpace=wrap;html=1;" vertex="1" parent="1">
          <mxGeometry x="640" y="470" width="40" height="40" as="geometry" />
        </mxCell>
        <mxCell id="FGJA37stXW7gpaV1ArHA-67" value="" style="ellipse;whiteSpace=wrap;html=1;aspect=fixed;fillColor=#000000;" vertex="1" parent="1">
          <mxGeometry x="650" y="480" width="20" height="20" as="geometry" />
        </mxCell>
      </root>
    </mxGraphModel>
  </diagram>
</mxfile>
